<svg width="1440" height="400" viewBox="0 0 1440 400" fill="none" xmlns="http://www.w3.org/2000/svg">
<g clip-path="url(#clip0_3272_468)">
<rect width="1440" height="400" fill="#1E3448"/>
<g opacity="0.7">
<path fill-rule="evenodd" clip-rule="evenodd" d="M928.5 329.647C938.766 282.37 1018.04 188.03 1060.91 152.427C1100.74 119.339 1121.06 106.675 1178.5 94.9325C1233.59 83.6696 1319.25 99.0959 1376 103.902C1448.73 110.063 1552.64 74.3524 1589.88 121.456C1628.19 169.912 1554.85 226.712 1533.8 280.751C1519.8 316.673 1509.17 350.924 1487.35 384.597C1460.2 426.495 1450.47 485.616 1391.44 500.451C1332.48 515.265 1282.69 460.404 1221.68 451.358C1146.6 440.224 1053.14 481.798 998.002 442.109C944.602 403.67 916.623 384.347 928.5 329.647Z" fill="url(#paint0_linear_3272_468)" fill-opacity="0.3"/>
<path fill-rule="evenodd" clip-rule="evenodd" d="M1040.14 349.119C1041.37 307.028 1054.74 265.722 1086.25 230.825C1115.53 198.393 1160.8 177.668 1208.89 162.214C1255.01 147.392 1294.81 163.199 1345 162.214C1409.32 160.953 1501.59 118.073 1541.68 155.687C1582.93 194.38 1528.35 250.505 1518.83 299.465C1512.5 332.01 1508.83 362.796 1495.32 394.095C1478.52 433.041 1479.68 485.395 1430.71 503.685C1381.8 521.95 1329.51 478.728 1274.93 476.409C1207.75 473.555 1133.17 518.258 1078.7 488.729C1025.95 460.131 1038.71 397.818 1040.14 349.119Z" fill="url(#paint1_linear_3272_468)" fill-opacity="0.4"/>
<path fill-rule="evenodd" clip-rule="evenodd" d="M1139.13 342.229C1154.45 303.639 1180.72 268.061 1221.54 241.811C1259.49 217.417 1308.23 206.831 1357.79 201.638C1405.33 196.658 1450.84 204.353 1497.46 212.901C1557.21 223.856 1642.64 216.076 1666.94 258.322C1691.93 301.78 1622.67 343.262 1597.38 386.624C1580.56 415.448 1566.8 443.151 1543.79 469.474C1515.15 502.228 1498.57 550.734 1447.24 558.377C1395.97 566.009 1362.32 516.292 1312.76 503.869C1251.76 488.579 1167.9 515.758 1127.62 478.26C1088.61 441.945 1121.39 386.876 1139.13 342.229Z" fill="url(#paint2_linear_3272_468)" fill-opacity="0.6"/>
</g>
<g opacity="0.5">
<path fill-rule="evenodd" clip-rule="evenodd" d="M43 192.107C-13.417 169.4 -91.4973 207.114 -122.5 165.197C-151.311 126.244 -160.612 44.6091 -156.682 0.1949C-152.913 -42.405 -129.881 -80.1686 -105.252 -118.689C-73.6885 -168.054 -65.0909 -244.326 6.63528 -255.235C80.4193 -266.456 128.261 -196.084 189.698 -163.545C230.539 -141.915 270.367 -123.208 305.807 -96.7871C349.903 -63.9117 421.468 -37.7091 420.926 8.84397C420.385 55.3315 334.746 72.5759 303.366 112.714C264.745 162.117 286.756 241.729 218.553 267.706C152.499 292.865 108.273 218.379 43 192.107Z" fill="url(#paint3_linear_3272_468)" fill-opacity="0.3"/>
<path fill-rule="evenodd" clip-rule="evenodd" d="M130 156.975C77.1862 142.346 13.3208 143.549 -20.5002 109.882C-51.9312 78.5957 -50.757 74.6479 -54.5755 35.6262C-58.2384 -1.80136 -44.3439 -36.7735 -29.1827 -72.5492C-9.75215 -118.397 -14.6998 -185.578 45.9616 -201.606C108.364 -218.094 161.481 -161.191 220.268 -138.461C259.346 -123.351 297.068 -110.693 332.225 -90.9206C375.971 -66.3182 442.541 -50.0254 449.657 -9.45131C456.763 31.067 385.023 53.8783 364.249 91.6779C338.68 138.201 370.818 205.501 315.679 234.327C262.279 262.243 191.104 173.9 130 156.975Z" fill="url(#paint4_linear_3272_468)" fill-opacity="0.4"/>
<path fill-rule="evenodd" clip-rule="evenodd" d="M167.5 93.0638C123.721 69.6205 11.8413 73.3033 -8.00012 35.88C-26.4388 1.10229 85.364 9.05227 95 -27.6575C104.243 -62.8673 80.9529 -62.5497 107 -92.69C140.382 -131.316 181.646 -89.3366 243 -92.69C306.114 -96.1402 300.736 -178.991 356.14 -165.456C417.702 -150.417 330.381 -66.3471 356.14 -41.4863C388.19 -10.5521 531.325 -42.0129 524.206 -3.24962C517.098 35.4604 443.239 42.9824 411.332 73.9319C372.062 112.023 379.01 180.15 318.434 196.348C259.769 212.034 218.149 120.188 167.5 93.0638Z" fill="url(#paint5_linear_3272_468)" fill-opacity="0.6"/>
</g>
</g>
<defs>
<linearGradient id="paint0_linear_3272_468" x1="1499.68" y1="444.148" x2="1074.3" y2="187.426" gradientUnits="userSpaceOnUse">
<stop stop-color="#9EE6F7" stop-opacity="0"/>
<stop offset="1" stop-color="#9EE6F7" stop-opacity="0.46"/>
</linearGradient>
<linearGradient id="paint1_linear_3272_468" x1="1511.69" y1="455.075" x2="1091.61" y2="290.592" gradientUnits="userSpaceOnUse">
<stop stop-color="#9EE6F7" stop-opacity="0"/>
<stop offset="1" stop-color="#9EE6F7" stop-opacity="0.46"/>
</linearGradient>
<linearGradient id="paint2_linear_3272_468" x1="1538.32" y1="528.8" x2="1227.12" y2="272.69" gradientUnits="userSpaceOnUse">
<stop stop-color="#005AE2"/>
<stop offset="1" stop-color="#73E6FF" stop-opacity="0.38"/>
</linearGradient>
<linearGradient id="paint3_linear_3272_468" x1="396.928" y1="-77.634" x2="140.688" y2="285.345" gradientUnits="userSpaceOnUse">
<stop stop-color="#9EE6F7" stop-opacity="0"/>
<stop offset="1" stop-color="#9EE6F7" stop-opacity="0.46"/>
</linearGradient>
<linearGradient id="paint4_linear_3272_468" x1="414.67" y1="-82.5465" x2="238.043" y2="250.013" gradientUnits="userSpaceOnUse">
<stop stop-color="#9EE6F7" stop-opacity="0"/>
<stop offset="1" stop-color="#9EE6F7" stop-opacity="0.46"/>
</linearGradient>
<linearGradient id="paint5_linear_3272_468" x1="516.586" y1="-77.2589" x2="255.452" y2="208.884" gradientUnits="userSpaceOnUse">
<stop stop-color="#005AE2"/>
<stop offset="1" stop-color="#73E6FF" stop-opacity="0.38"/>
</linearGradient>
<clipPath id="clip0_3272_468">
<rect width="1440" height="400" fill="white"/>
</clipPath>
</defs>
</svg>
